<?xml version="1.0" standalone="no"?>
<!DOCTYPE svg PUBLIC "-//W3C//DTD SVG 20010904//EN"
 "http://www.w3.org/TR/2001/REC-SVG-20010904/DTD/svg10.dtd">
<svg version="1.0" xmlns="http://www.w3.org/2000/svg"
 width="1000.000000pt" height="1000.000000pt" viewBox="0 0 1000.000000 1000.000000"
 preserveAspectRatio="xMidYMid meet">
<metadata>
Created by potrace 1.14, written by Peter Selinger 2001-2017
</metadata>
<g transform="translate(0.000000,1000.000000) scale(0.100000,-0.100000)"
fill="#000000" stroke="none">
<path d="M8018 8195 c-3 -3 -14 -7 -24 -10 -11 -2 -57 -16 -104 -30 -47 -15
-89 -28 -95 -29 -5 -2 -17 -6 -25 -9 -8 -4 -24 -8 -35 -10 -11 -2 -29 -8 -40
-13 -11 -6 -27 -10 -35 -9 -8 1 -28 -5 -43 -13 -16 -7 -35 -11 -43 -8 -8 3
-14 1 -14 -4 0 -4 -15 -12 -32 -16 -18 -4 -35 -8 -38 -9 -3 -1 -25 -8 -50 -15
-25 -7 -48 -14 -52 -16 -5 -1 -9 -2 -10 -4 -5 -3 -43 -12 -60 -13 -10 -1 -18
-4 -18 -8 0 -5 -45 -18 -65 -19 -3 0 -21 -6 -40 -14 -19 -8 -35 -12 -35 -9 0
3 -7 0 -15 -7 -8 -7 -15 -10 -15 -7 0 4 -19 -1 -42 -9 -24 -9 -54 -18 -68 -20
-14 -2 -34 -9 -45 -14 -11 -5 -78 -25 -150 -45 -71 -20 -139 -40 -150 -45 -35
-14 -110 -34 -122 -33 -7 0 -13 -4 -13 -10 0 -6 -3 -8 -6 -4 -4 3 -22 0 -40
-8 -19 -8 -37 -14 -39 -15 -3 0 -6 0 -7 -1 -2 0 -10 -2 -18 -4 -8 -2 -52 -15
-97 -28 -46 -14 -83 -22 -83 -20 0 3 -7 0 -15 -7 -8 -7 -15 -9 -15 -5 0 4 -6
3 -12 -3 -7 -5 -29 -13 -48 -17 -19 -4 -41 -12 -49 -19 -8 -6 -15 -9 -15 -7
-1 5 -85 -15 -116 -27 -19 -7 -17 -6 -70 -21 -25 -6 -54 -16 -65 -20 -11 -5
-56 -19 -100 -31 -44 -12 -105 -30 -135 -40 -57 -18 -141 -43 -150 -44 -3 -1
-25 -7 -50 -15 -69 -21 -75 -22 -77 -22 -2 0 -20 -6 -42 -14 -22 -7 -42 -11
-45 -8 -3 4 -6 1 -6 -5 0 -7 -3 -11 -7 -10 -5 1 -35 -6 -68 -16 -33 -10 -67
-20 -75 -22 -8 -2 -60 -17 -115 -34 -55 -17 -111 -34 -124 -36 -13 -3 -34 -10
-45 -16 -12 -6 -23 -11 -26 -10 -3 1 -25 -5 -50 -13 -25 -8 -54 -16 -65 -18
-11 -2 -27 -7 -35 -10 -18 -7 -149 -47 -170 -52 -8 -2 -27 -8 -42 -14 -16 -6
-28 -9 -28 -6 0 2 -15 -2 -34 -10 -18 -8 -44 -16 -57 -19 -13 -2 -51 -13 -84
-24 -33 -10 -82 -25 -110 -32 -27 -7 -56 -17 -62 -23 -7 -5 -13 -7 -13 -4 0 3
-26 -3 -57 -14 -32 -11 -69 -23 -83 -25 -14 -2 -36 -9 -50 -14 -29 -10 -194
-61 -212 -64 -7 -2 -20 -5 -28 -9 -33 -12 -199 -60 -215 -63 -5 0 -18 -4 -27
-8 -9 -4 -22 -9 -30 -10 -7 -2 -20 -6 -28 -9 -23 -9 -149 -46 -174 -51 -11 -3
-40 -11 -64 -20 -23 -8 -44 -16 -47 -16 -3 0 -10 -3 -17 -5 -59 -20 -248 -72
-248 -68 0 3 -6 0 -14 -6 -7 -6 -25 -12 -40 -13 -14 -1 -26 -6 -26 -10 0 -4
-6 -8 -14 -8 -7 0 -67 -16 -132 -36 -66 -20 -126 -37 -134 -39 -8 -2 -35 -10
-60 -18 -25 -8 -72 -22 -105 -32 -33 -9 -71 -21 -85 -27 -14 -6 -38 -12 -53
-14 -16 -2 -34 -7 -40 -11 -7 -4 -16 -8 -22 -10 -36 -8 -53 -12 -78 -22 -15
-6 -38 -13 -50 -15 -12 -3 -67 -19 -122 -36 -55 -17 -107 -33 -115 -35 -8 -2
-16 -4 -17 -5 -2 -2 -6 -3 -10 -4 -34 -9 -101 -28 -113 -32 -8 -3 -15 -4 -15
-3 0 1 -17 -6 -37 -14 -21 -9 -38 -14 -38 -12 0 3 -17 -2 -37 -10 -21 -8 -47
-16 -58 -18 -11 -1 -24 -5 -30 -9 -5 -3 -26 -9 -45 -14 -46 -10 -49 -11 -57
-14 -5 -1 -11 -2 -15 -1 -5 0 -8 -4 -8 -10 0 -5 -3 -8 -8 -5 -4 2 -34 -5 -67
-16 -33 -11 -67 -21 -75 -23 -8 -2 -55 -15 -105 -30 -49 -15 -96 -27 -102 -28
-7 0 -13 -5 -13 -10 0 -6 -3 -8 -6 -4 -3 3 -25 -1 -47 -10 -23 -8 -49 -16 -57
-18 -8 -2 -22 -5 -30 -7 -29 -6 -50 -44 -45 -79 3 -19 7 -65 10 -102 3 -38 8
-73 11 -78 3 -5 2 -9 -3 -9 -7 0 -12 -27 -16 -82 -1 -10 -4 -18 -7 -18 -3 0
-6 -9 -7 -19 -2 -25 -66 -154 -90 -180 -10 -11 -23 -26 -29 -33 -20 -24 -79
-73 -120 -99 -43 -28 -160 -80 -189 -84 -5 0 -8 -7 -6 -15 2 -8 4 -21 4 -27 0
-7 12 -14 26 -15 14 0 31 -2 36 -3 6 -2 15 -3 21 -4 30 -3 57 -42 59 -86 2
-25 -1 -45 -6 -45 -5 0 -9 -7 -9 -15 0 -18 -40 -56 -52 -49 -11 7 -9 -7 5 -33
8 -15 17 -19 26 -13 24 14 118 -40 106 -61 -3 -4 -1 -10 4 -13 11 -7 -1 -63
-20 -94 -8 -12 -24 -25 -36 -28 -33 -9 -11 -50 28 -52 51 -3 59 -5 59 -14 0
-5 4 -7 9 -4 10 7 41 -63 38 -85 -4 -25 -29 -79 -36 -75 -8 4 -36 -26 -36 -41
0 -18 12 -26 42 -29 16 -1 33 -2 39 -3 27 -2 62 -52 66 -96 3 -23 -35 -83 -58
-94 -21 -9 -23 -14 -14 -32 7 -12 18 -18 26 -15 8 3 14 1 14 -5 0 -6 4 -8 9
-5 5 3 22 1 39 -5 29 -10 47 -38 56 -85 5 -26 -40 -104 -60 -104 -8 0 -14 -6
-14 -12 0 -22 17 -41 31 -36 21 7 82 -12 96 -31 7 -9 13 -24 13 -33 0 -10 5
-18 12 -18 9 0 9 -3 0 -12 -7 -7 -12 -21 -12 -33 0 -22 -41 -75 -58 -75 -5 0
-8 -9 -5 -20 5 -19 16 -25 37 -21 14 3 69 -22 87 -39 9 -8 17 -35 18 -61 2
-42 -1 -51 -34 -83 -46 -47 -42 -72 13 -70 44 1 77 -20 91 -59 11 -27 6 -74
-10 -93 -5 -6 -6 -14 -2 -17 3 -4 -1 -7 -10 -7 -9 0 -17 -4 -17 -10 0 -5 -7
-10 -15 -10 -8 0 -15 -9 -15 -21 0 -11 5 -17 10 -14 6 3 10 1 10 -4 0 -6 15
-11 34 -11 19 0 38 -5 41 -10 4 -6 9 -9 13 -7 10 5 37 -26 38 -43 1 -8 3 -22
4 -30 5 -22 -11 -70 -22 -70 -5 0 -6 -4 -3 -10 3 -5 1 -10 -5 -10 -20 0 -42
-29 -36 -47 4 -12 17 -19 41 -20 102 -5 133 -113 54 -185 -25 -23 -28 -31 -19
-47 6 -12 16 -18 25 -15 8 3 30 1 50 -6 69 -23 84 -113 29 -171 -15 -16 -30
-26 -35 -24 -9 6 -6 -15 4 -32 5 -7 26 -13 48 -13 21 0 39 -4 39 -10 0 -5 6
-10 13 -10 22 0 39 -45 35 -86 -6 -46 -26 -82 -50 -90 -10 -3 -18 -13 -18 -22
1 -18 30 -63 30 -46 0 6 6 11 13 11 6 1 46 7 87 15 95 17 177 15 259 -6 74
-19 177 -69 202 -97 9 -10 20 -19 24 -19 7 0 41 -34 80 -82 24 -28 60 -94 70
-128 4 -13 13 -30 19 -37 6 -7 17 -20 25 -29 10 -12 23 -14 50 -9 20 4 43 8
51 9 9 1 20 5 25 8 6 3 37 13 70 22 33 9 67 20 75 23 8 3 20 7 25 8 6 2 44 13
85 26 41 12 81 24 87 26 7 2 19 4 25 6 7 2 47 14 88 27 41 13 78 25 83 26 4 1
8 2 10 4 2 1 10 4 52 14 11 2 56 15 100 29 162 51 230 70 243 70 6 0 12 3 12
7 0 4 6 7 13 7 12 0 226 62 307 90 25 8 54 17 65 19 11 2 31 8 45 13 29 10
166 52 184 55 6 2 38 11 71 21 33 10 65 20 70 21 60 15 131 39 133 46 2 4 7 6
12 3 5 -3 21 0 37 6 15 6 37 13 48 15 11 3 25 6 30 8 15 3 88 27 105 33 13 5
31 10 65 17 6 1 15 4 20 8 6 3 26 9 45 14 43 10 41 9 65 18 50 19 71 26 90 29
16 3 125 34 185 53 8 3 16 5 17 5 2 0 20 6 42 14 22 7 42 11 45 8 3 -4 6 -1 6
5 0 7 3 11 8 10 4 -1 27 4 52 11 25 7 50 14 55 15 12 2 83 25 105 33 19 8 41
13 63 15 9 1 17 5 17 8 0 4 6 7 13 8 16 1 32 5 102 26 33 10 65 19 70 21 6 1
17 5 25 8 8 3 33 11 55 17 22 6 47 14 55 17 8 3 24 8 35 10 11 2 27 6 35 10 8
3 24 8 35 10 11 2 37 10 58 18 20 8 37 12 37 9 0 -4 6 -1 13 5 8 6 17 8 20 4
4 -3 7 -2 7 3 0 5 8 10 18 11 10 1 72 18 138 38 194 59 373 112 399 118 6 2
15 6 22 10 6 4 23 8 37 9 14 1 26 7 26 12 0 5 3 7 6 3 3 -3 25 1 47 10 23 8
49 16 57 18 26 5 134 36 150 42 18 8 15 7 70 22 25 7 63 19 85 26 22 7 67 20
100 30 87 24 77 21 137 40 215 66 281 85 298 85 11 0 20 4 20 8 0 5 30 16 68
26 78 20 82 21 102 29 8 4 47 15 85 26 39 10 102 29 140 41 39 11 102 30 140
41 39 11 77 23 85 26 19 8 28 10 70 22 53 14 343 101 360 108 8 3 24 8 35 10
11 2 27 6 35 10 22 9 43 14 63 16 9 1 17 4 17 8 0 4 15 10 33 13 18 3 68 18
112 32 44 14 89 27 100 28 11 2 31 8 45 14 14 6 52 18 85 27 33 9 71 20 85 25
14 5 39 12 55 16 34 8 35 9 55 17 8 3 49 15 90 27 41 12 82 24 90 27 8 3 20 7
25 8 6 0 17 4 25 7 8 3 49 15 90 28 41 12 85 28 97 36 23 14 23 14 7 139 -3
22 -5 45 -6 50 -3 29 14 138 27 174 8 23 12 41 8 41 -3 0 1 7 8 16 7 9 14 23
15 32 2 8 9 19 16 23 7 5 9 9 4 9 -22 0 129 170 152 170 6 0 12 4 12 9 0 8
117 75 132 76 3 0 10 3 14 8 4 4 17 7 29 7 22 0 69 29 49 30 -7 0 -11 8 -10
17 1 13 -10 19 -48 24 -45 7 -93 39 -79 53 4 3 2 6 -3 6 -5 0 -10 18 -11 40
-1 22 3 40 8 40 5 0 9 7 9 15 0 8 13 24 30 36 24 18 27 25 19 41 -6 11 -16 17
-22 15 -17 -5 -78 12 -91 27 -35 38 -36 116 -2 141 8 7 13 15 9 18 -3 4 1 7
10 7 16 0 34 37 23 48 -4 3 -21 6 -39 7 -17 1 -42 5 -53 9 -26 8 -54 61 -48
90 10 56 16 76 22 76 4 1 17 9 30 20 34 28 16 56 -34 54 -31 -2 -43 4 -67 29
-23 25 -28 38 -25 66 7 56 11 64 45 92 31 25 32 27 15 45 -11 12 -27 18 -45
16 -16 -2 -36 3 -46 12 -10 9 -21 13 -26 9 -4 -5 -5 -2 -1 5 4 6 3 12 -2 12
-9 0 -12 14 -12 68 -1 36 25 78 53 87 35 12 10 57 -28 51 -95 -14 -139 119
-63 186 11 9 25 19 31 21 24 8 -21 43 -53 41 -21 -1 -39 6 -60 26 -43 40 -43
102 0 148 16 18 34 31 39 28 5 -4 7 3 4 14 -3 11 -8 21 -12 21 -3 1 -17 3 -31
4 -48 5 -70 17 -89 49 -31 50 -18 105 37 153 32 29 16 53 -34 49 -19 -1 -34 1
-34 6 0 4 -7 8 -15 8 -31 0 -54 85 -36 133 6 15 24 35 41 45 26 16 28 21 17
37 -8 10 -30 19 -52 21 -45 4 -83 37 -85 74 -5 56 1 74 36 106 38 36 40 55 8
60 -96 14 -120 35 -119 105 0 39 5 51 36 81 44 43 38 68 -17 68 -59 0 -93 35
-98 100 -2 22 36 90 50 90 19 0 27 18 20 45 -5 19 -12 24 -29 21 -12 -3 -22
-5 -22 -7 0 -1 -9 -3 -20 -5 -11 -2 -33 -6 -50 -10 -60 -12 -191 -10 -244 3
-30 8 -62 15 -70 17 -24 4 -74 28 -93 44 -10 9 -18 12 -18 9 0 -4 -10 2 -22
12 -13 11 -34 29 -47 40 -13 12 -28 21 -33 21 -4 0 -8 6 -8 13 0 7 -8 20 -17
29 -25 23 -43 46 -43 54 0 3 -9 17 -20 31 -11 14 -20 35 -20 47 0 41 -89 114
-112 91z"/>
</g>
</svg>
